#define battery-chg-1_width 32
#define battery-chg-1_height 16
static unsigned char battery-chg-1_bits[] = {
   0x00, 0x00, 0x00, 0x00, 0x00, 0x00, 0x00, 0x00, 0xfe, 0xff, 0xff, 0x1f,
   0x02, 0x00, 0x00, 0x10, 0x3a, 0x00, 0x00, 0x70, 0x3a, 0xf0, 0x01, 0x40,
   0x3a, 0xe0, 0x03, 0x40, 0x3a, 0xc0, 0x01, 0x40, 0x3a, 0xe0, 0x00, 0x40,
   0x3a, 0xc0, 0x01, 0x40, 0x3a, 0x80, 0x00, 0x40, 0x3a, 0x00, 0x00, 0x70,
   0x02, 0x00, 0x00, 0x10, 0xfe, 0xff, 0xff, 0x1f, 0x00, 0x00, 0x00, 0x00,
   0x00, 0x00, 0x00, 0x00};
