#define battery-full_width 32
#define battery-full_height 16
static unsigned char battery-full_bits[] = {
   0x00, 0x00, 0x00, 0x00, 0x00, 0x00, 0x00, 0x00, 0xfe, 0xff, 0xff, 0x1f,
   0x02, 0x00, 0x00, 0x10, 0xfa, 0xff, 0xff, 0x77, 0xfa, 0xff, 0xf0, 0x47,
   0xfa, 0x7f, 0x80, 0x5f, 0xfa, 0x01, 0xf0, 0x5f, 0xfa, 0x01, 0xf0, 0x5f,
   0xfa, 0x7f, 0x80, 0x5f, 0xfa, 0xff, 0xf0, 0x47, 0xfa, 0xff, 0xff, 0x77,
   0x02, 0x00, 0x00, 0x10, 0xfe, 0xff, 0xff, 0x1f, 0x00, 0x00, 0x00, 0x00,
   0x00, 0x00, 0x00, 0x00};
