#define battery-chg-2_width 32
#define battery-chg-2_height 16
static unsigned char battery-chg-2_bits[] = {
   0x00, 0x00, 0x00, 0x00, 0x00, 0x00, 0x00, 0x00, 0xfe, 0xff, 0xff, 0x1f,
   0x02, 0x00, 0x00, 0x10, 0xfa, 0x01, 0x00, 0x70, 0xfa, 0xf1, 0x01, 0x40,
   0xfa, 0xe1, 0x03, 0x40, 0xfa, 0xc1, 0x01, 0x40, 0xfa, 0xe1, 0x00, 0x40,
   0xfa, 0xc1, 0x01, 0x40, 0xfa, 0x81, 0x00, 0x40, 0xfa, 0x01, 0x00, 0x70,
   0x02, 0x00, 0x00, 0x10, 0xfe, 0xff, 0xff, 0x1f, 0x00, 0x00, 0x00, 0x00,
   0x00, 0x00, 0x00, 0x00};
