#define battery-chg-0_width 32
#define battery-chg-0_height 16
static unsigned char battery-chg-0_bits[] = {
   0x00, 0x00, 0x00, 0x00, 0x00, 0x00, 0x00, 0x00, 0xfe, 0xff, 0xff, 0x1f,
   0x02, 0x00, 0x00, 0x10, 0x02, 0x00, 0x00, 0x70, 0x02, 0xf0, 0x01, 0x40,
   0x02, 0xe0, 0x03, 0x40, 0x02, 0xc0, 0x01, 0x40, 0x02, 0xe0, 0x00, 0x40,
   0x02, 0xc0, 0x01, 0x40, 0x02, 0x80, 0x00, 0x40, 0x02, 0x00, 0x00, 0x70,
   0x02, 0x00, 0x00, 0x10, 0xfe, 0xff, 0xff, 0x1f, 0x00, 0x00, 0x00, 0x00,
   0x00, 0x00, 0x00, 0x00};
