#define battery-chg-8_width 32
#define battery-chg-8_height 16
static unsigned char battery-chg-8_bits[] = {
   0x00, 0x00, 0x00, 0x00, 0x00, 0x00, 0x00, 0x00, 0xfe, 0xff, 0xff, 0x1f,
   0x02, 0x00, 0x00, 0x10, 0xfa, 0xff, 0xff, 0x77, 0xfa, 0x0f, 0xfe, 0x47,
   0xfa, 0x1f, 0xfc, 0x5f, 0xfa, 0x3f, 0xfe, 0x5f, 0xfa, 0x1f, 0xff, 0x5f,
   0xfa, 0x3f, 0xfe, 0x5f, 0xfa, 0x7f, 0xff, 0x47, 0xfa, 0xff, 0xff, 0x77,
   0x02, 0x00, 0x00, 0x10, 0xfe, 0xff, 0xff, 0x1f, 0x00, 0x00, 0x00, 0x00,
   0x00, 0x00, 0x00, 0x00};
