#define battery-chg-3_width 32
#define battery-chg-3_height 16
static unsigned char battery-chg-3_bits[] = {
   0x00, 0x00, 0x00, 0x00, 0x00, 0x00, 0x00, 0x00, 0xfe, 0xff, 0xff, 0x1f,
   0x02, 0x00, 0x00, 0x10, 0xfa, 0x0f, 0x00, 0x70, 0xfa, 0xff, 0x01, 0x40,
   0xfa, 0xef, 0x03, 0x40, 0xfa, 0xcf, 0x01, 0x40, 0xfa, 0xef, 0x00, 0x40,
   0xfa, 0xcf, 0x01, 0x40, 0xfa, 0x8f, 0x00, 0x40, 0xfa, 0x0f, 0x00, 0x70,
   0x02, 0x00, 0x00, 0x10, 0xfe, 0xff, 0xff, 0x1f, 0x00, 0x00, 0x00, 0x00,
   0x00, 0x00, 0x00, 0x00};
