#define down-arrow_width 8
#define down-arrow_height 17
static unsigned char down-arrow_bits[] = {
   0x00, 0x00, 0x18, 0x18, 0x18, 0x18, 0x18, 0x18, 0x18, 0x18, 0x18, 0x7e,
   0x3c, 0x18, 0x00, 0x00, 0x00};
