#define letter_width 16
#define letter_height 17
static unsigned char letter_bits[] = {
   0x00, 0x00, 0x00, 0x00, 0x00, 0x00, 0xfe, 0x7f, 0xfc, 0x3f, 0xf8, 0x1f,
   0xf2, 0x4f, 0xe6, 0x67, 0xce, 0x73, 0x9e, 0x79, 0x3e, 0x7c, 0xfe, 0x7f,
   0xfe, 0x7f, 0x00, 0x00, 0x00, 0x00, 0x00, 0x00, 0x00, 0x00};
