#define term_width 16
#define term_height 17
static unsigned char term_bits[] = {
   0x00, 0x00, 0x00, 0x00, 0x04, 0x00, 0x0c, 0x00, 0x18, 0x00, 0x30, 0x00,
   0x60, 0x00, 0xc0, 0x00, 0xc0, 0x00, 0x60, 0x00, 0x30, 0x00, 0x18, 0x00,
   0x8c, 0x7f, 0x84, 0x7f, 0x00, 0x00, 0x00, 0x00, 0x00, 0x00};
