#define up-arrow_width 8
#define up-arrow_height 17
static unsigned char up-arrow_bits[] = {
   0x00, 0x00, 0x18, 0x3c, 0x7e, 0x18, 0x18, 0x18, 0x18, 0x18, 0x18, 0x18,
   0x18, 0x18, 0x00, 0x00, 0x00};
