#define web_width 16
#define web_height 17
static unsigned char web_bits[] = {
   0x00, 0x00, 0xe0, 0x07, 0xf8, 0x0f, 0x8c, 0x1f, 0x04, 0x39, 0x06, 0x3c,
   0x06, 0x7c, 0x0e, 0x7f, 0x9e, 0x7f, 0xbc, 0x3f, 0x7c, 0x33, 0xf8, 0x10,
   0x70, 0x1c, 0xc0, 0x07, 0x00, 0x00, 0x00, 0x00, 0x00, 0x00};
